<svg xmlns="http://www.w3.org/2000/svg" viewBox="0 0 64 64" role="img" aria-labelledby="title">
  <title id="title">Finance Tracker</title>
  <defs>
    <linearGradient id="background" x1="10" y1="8" x2="54" y2="57" gradientUnits="userSpaceOnUse">
      <stop stop-color="#123A52"/>
      <stop offset="1" stop-color="#071C2B"/>
    </linearGradient>
    <linearGradient id="growth" x1="17" y1="45" x2="48" y2="19" gradientUnits="userSpaceOnUse">
      <stop stop-color="#4FE0B6"/>
      <stop offset="1" stop-color="#B5F56A"/>
    </linearGradient>
  </defs>
  <rect x="3" y="3" width="58" height="58" rx="15" fill="url(#background)"/>
  <path d="M17 16.5h30a4 4 0 0 1 4 4v23a4 4 0 0 1-4 4H17a4 4 0 0 1-4-4v-23a4 4 0 0 1 4-4Z" fill="#EAF6F2" fill-opacity=".1" stroke="#EAF6F2" stroke-width="3"/>
  <path d="M20 39.5 27.5 32l6 5 11-13" fill="none" stroke="url(#growth)" stroke-width="5" stroke-linecap="round" stroke-linejoin="round"/>
  <path d="M38.5 24H44v5.5" fill="none" stroke="#B5F56A" stroke-width="5" stroke-linecap="round" stroke-linejoin="round"/>
  <circle cx="20" cy="24" r="2.5" fill="#EAF6F2"/>
</svg>
